<mxfile host="Electron" modified="2024-03-26T11:16:49.594Z" agent="Mozilla/5.0 (Windows NT 10.0; Win64; x64) AppleWebKit/537.36 (KHTML, like Gecko) draw.io/24.1.0 Chrome/120.0.6099.109 Electron/28.1.0 Safari/537.36" etag="xpr8wxmKkkX09SjUo22i" version="24.1.0" type="device">
  <diagram name="Page-1" id="s0CEFH6hP1sgjrKnKDY1">
    <mxGraphModel dx="1274" dy="1106" grid="1" gridSize="10" guides="1" tooltips="1" connect="1" arrows="1" fold="1" page="1" pageScale="1" pageWidth="1169" pageHeight="827" math="0" shadow="0">
      <root>
        <mxCell id="0" />
        <mxCell id="1" parent="0" />
        <mxCell id="kRHJZaTtdogB_K1UM1M0-39" value="" style="shape=mxgraph.pid.vessels.tank,_vessel;html=1;pointerEvents=1;align=center;verticalLabelPosition=bottom;verticalAlign=middle;dashed=0;strokeColor=#9F1D54;strokeWidth=2;fontFamily=Helvetica;fontSize=18;fillColor=none;rounded=0;labelBackgroundColor=default;" parent="1" vertex="1">
          <mxGeometry x="210" y="200" width="120" height="147.5" as="geometry" />
        </mxCell>
        <mxCell id="kRHJZaTtdogB_K1UM1M0-48" style="edgeStyle=orthogonalEdgeStyle;rounded=0;orthogonalLoop=1;jettySize=auto;html=1;fontFamily=Helvetica;fontSize=18;fontColor=default;entryX=-0.018;entryY=0.492;entryDx=0;entryDy=0;entryPerimeter=0;strokeWidth=2;endArrow=blockThin;endFill=1;strokeColor=#65489d;align=center;verticalAlign=middle;labelBackgroundColor=default;fillColor=#dae8fc;" parent="1" target="kRHJZaTtdogB_K1UM1M0-1" edge="1">
          <mxGeometry relative="1" as="geometry">
            <mxPoint x="160" y="70" as="targetPoint" />
            <mxPoint x="120" y="70" as="sourcePoint" />
            <Array as="points">
              <mxPoint x="160" y="70" />
            </Array>
          </mxGeometry>
        </mxCell>
        <mxCell id="kRHJZaTtdogB_K1UM1M0-1" value="" style="shape=mxgraph.pid.compressors_-_iso.compressor,_vacuum_pump;html=1;pointerEvents=1;align=center;verticalLabelPosition=bottom;verticalAlign=middle;dashed=0;strokeWidth=2;rounded=0;strokeColor=default;fontFamily=Helvetica;fontSize=18;fontColor=default;labelBackgroundColor=default;" parent="1" vertex="1">
          <mxGeometry x="170" y="50" width="40" height="40" as="geometry" />
        </mxCell>
        <mxCell id="kRHJZaTtdogB_K1UM1M0-2" value="" style="shape=mxgraph.pid.heat_exchangers.shell_and_tube_heat_exchanger_3;html=1;pointerEvents=1;align=center;verticalLabelPosition=bottom;verticalAlign=middle;dashed=0;strokeColor=default;strokeWidth=2;fontFamily=Helvetica;fontSize=18;fontColor=default;fillColor=default;rounded=0;labelBackgroundColor=default;" parent="1" vertex="1">
          <mxGeometry x="460" y="130" width="40" height="40" as="geometry" />
        </mxCell>
        <mxCell id="kRHJZaTtdogB_K1UM1M0-3" value="" style="shape=mxgraph.pid.heat_exchangers.shell_and_tube_heat_exchanger_3;html=1;pointerEvents=1;align=center;verticalLabelPosition=bottom;verticalAlign=middle;dashed=0;strokeColor=default;strokeWidth=2;fontFamily=Helvetica;fontSize=18;fontColor=default;fillColor=default;rounded=0;labelBackgroundColor=default;" parent="1" vertex="1">
          <mxGeometry x="540" y="130" width="40" height="40" as="geometry" />
        </mxCell>
        <mxCell id="kRHJZaTtdogB_K1UM1M0-5" value="" style="shape=mxgraph.pid.vessels.reactor;html=1;pointerEvents=1;align=center;verticalLabelPosition=bottom;verticalAlign=middle;dashed=0;strokeColor=default;strokeWidth=2;fontFamily=Helvetica;fontSize=18;fontColor=default;fillColor=default;rounded=0;labelBackgroundColor=default;" parent="1" vertex="1">
          <mxGeometry x="460" y="230" width="40" height="70" as="geometry" />
        </mxCell>
        <mxCell id="kRHJZaTtdogB_K1UM1M0-8" value="" style="shape=mxgraph.pid.compressors_-_iso.blower,_fan;html=1;pointerEvents=1;align=center;verticalLabelPosition=bottom;verticalAlign=middle;dashed=0;strokeColor=default;strokeWidth=2;fontFamily=Helvetica;fontSize=18;fontColor=default;fillColor=default;direction=west;rounded=0;labelBackgroundColor=default;" parent="1" vertex="1">
          <mxGeometry x="380" y="440" width="23" height="23" as="geometry" />
        </mxCell>
        <mxCell id="kRHJZaTtdogB_K1UM1M0-9" value="" style="shape=mxgraph.pid.pumps_-_iso.pump_(centrifugal);html=1;pointerEvents=1;align=center;verticalLabelPosition=bottom;verticalAlign=middle;dashed=0;strokeColor=default;strokeWidth=2;fontFamily=Helvetica;fontSize=18;fontColor=default;fillColor=default;direction=west;rounded=0;labelBackgroundColor=default;" parent="1" vertex="1">
          <mxGeometry x="260" y="440" width="20" height="20" as="geometry" />
        </mxCell>
        <mxCell id="kRHJZaTtdogB_K1UM1M0-10" value="" style="shape=mxgraph.pid.vessels.reactor;html=1;pointerEvents=1;align=center;verticalLabelPosition=bottom;verticalAlign=middle;dashed=0;strokeColor=default;strokeWidth=2;fontFamily=Helvetica;fontSize=18;fontColor=default;fillColor=default;rounded=0;labelBackgroundColor=default;" parent="1" vertex="1">
          <mxGeometry x="260" y="230" width="40" height="95" as="geometry" />
        </mxCell>
        <mxCell id="kRHJZaTtdogB_K1UM1M0-31" style="edgeStyle=orthogonalEdgeStyle;rounded=0;orthogonalLoop=1;jettySize=auto;html=1;fontFamily=Helvetica;fontSize=18;fontColor=default;strokeWidth=2;strokeColor=#388ecc;align=center;verticalAlign=middle;labelBackgroundColor=default;endArrow=blockThin;endFill=1;" parent="1" source="kRHJZaTtdogB_K1UM1M0-11" edge="1">
          <mxGeometry relative="1" as="geometry">
            <mxPoint x="810" y="50" as="targetPoint" />
          </mxGeometry>
        </mxCell>
        <mxCell id="kRHJZaTtdogB_K1UM1M0-11" value="" style="verticalLabelPosition=bottom;outlineConnect=0;align=center;dashed=0;html=1;verticalAlign=middle;shape=mxgraph.pid2misc.column;columnType=fluid;pointerEvents=1;strokeColor=default;strokeWidth=2;fontFamily=Helvetica;fontSize=18;fontColor=default;fillColor=default;rounded=0;labelBackgroundColor=default;" parent="1" vertex="1">
          <mxGeometry x="795" y="70" width="30" height="100" as="geometry" />
        </mxCell>
        <mxCell id="kRHJZaTtdogB_K1UM1M0-28" style="edgeStyle=orthogonalEdgeStyle;rounded=0;orthogonalLoop=1;jettySize=auto;html=1;fontFamily=Helvetica;fontSize=18;fontColor=default;strokeWidth=2;strokeColor=#388ecc;align=center;verticalAlign=middle;labelBackgroundColor=default;endArrow=blockThin;endFill=1;" parent="1" source="kRHJZaTtdogB_K1UM1M0-13" target="kRHJZaTtdogB_K1UM1M0-17" edge="1">
          <mxGeometry relative="1" as="geometry" />
        </mxCell>
        <mxCell id="kRHJZaTtdogB_K1UM1M0-13" value="" style="shape=mxgraph.pid.vessels.pressurized_vessel;html=1;pointerEvents=1;align=center;verticalLabelPosition=bottom;verticalAlign=middle;dashed=0;strokeColor=default;strokeWidth=2;fontFamily=Helvetica;fontSize=18;fontColor=default;fillColor=default;rounded=0;labelBackgroundColor=default;" parent="1" vertex="1">
          <mxGeometry x="860" y="280" width="40" height="100" as="geometry" />
        </mxCell>
        <mxCell id="kRHJZaTtdogB_K1UM1M0-14" value="" style="shape=mxgraph.pid.heat_exchangers.shell_and_tube_heat_exchanger_3;html=1;pointerEvents=1;align=center;verticalLabelPosition=bottom;verticalAlign=middle;dashed=0;strokeColor=default;strokeWidth=2;fontFamily=Helvetica;fontSize=18;fontColor=default;fillColor=default;rounded=0;labelBackgroundColor=default;" parent="1" vertex="1">
          <mxGeometry x="740" y="310" width="40" height="40" as="geometry" />
        </mxCell>
        <mxCell id="kRHJZaTtdogB_K1UM1M0-15" value="" style="shape=mxgraph.pid.vessels.reactor;html=1;pointerEvents=1;align=center;verticalLabelPosition=bottom;verticalAlign=middle;dashed=0;strokeColor=default;strokeWidth=2;fontFamily=Helvetica;fontSize=18;fontColor=default;fillColor=default;rounded=0;labelBackgroundColor=default;" parent="1" vertex="1">
          <mxGeometry x="620" y="230" width="40" height="70" as="geometry" />
        </mxCell>
        <mxCell id="kRHJZaTtdogB_K1UM1M0-16" value="" style="shape=mxgraph.pid.vessels.pressurized_vessel;html=1;pointerEvents=1;align=center;verticalLabelPosition=bottom;verticalAlign=middle;dashed=0;strokeColor=default;strokeWidth=2;fontFamily=Helvetica;fontSize=18;fontColor=default;fillColor=default;rounded=0;labelBackgroundColor=default;" parent="1" vertex="1">
          <mxGeometry x="1000" y="280" width="40" height="100" as="geometry" />
        </mxCell>
        <mxCell id="kRHJZaTtdogB_K1UM1M0-29" style="edgeStyle=orthogonalEdgeStyle;rounded=0;orthogonalLoop=1;jettySize=auto;html=1;fontFamily=Helvetica;fontSize=18;fontColor=default;strokeWidth=2;strokeColor=#388ecc;align=center;verticalAlign=middle;labelBackgroundColor=default;endArrow=blockThin;endFill=1;" parent="1" edge="1">
          <mxGeometry relative="1" as="geometry">
            <mxPoint x="1060.6666666666665" y="50" as="targetPoint" />
            <mxPoint x="810" y="50" as="sourcePoint" />
          </mxGeometry>
        </mxCell>
        <mxCell id="kRHJZaTtdogB_K1UM1M0-30" style="edgeStyle=orthogonalEdgeStyle;rounded=0;orthogonalLoop=1;jettySize=auto;html=1;fontFamily=Helvetica;fontSize=18;fontColor=default;strokeWidth=2;strokeColor=#388ecc;align=center;verticalAlign=middle;labelBackgroundColor=default;endArrow=blockThin;endFill=1;" parent="1" source="kRHJZaTtdogB_K1UM1M0-17" edge="1">
          <mxGeometry relative="1" as="geometry">
            <mxPoint x="880" y="50" as="targetPoint" />
          </mxGeometry>
        </mxCell>
        <mxCell id="kRHJZaTtdogB_K1UM1M0-17" value="" style="verticalLabelPosition=bottom;outlineConnect=0;align=center;dashed=0;html=1;verticalAlign=middle;shape=mxgraph.pid2misc.column;columnType=fluid;pointerEvents=1;strokeColor=default;strokeWidth=2;fontFamily=Helvetica;fontSize=18;fontColor=default;fillColor=default;rounded=0;labelBackgroundColor=default;" parent="1" vertex="1">
          <mxGeometry x="865" y="70" width="30" height="100" as="geometry" />
        </mxCell>
        <mxCell id="kRHJZaTtdogB_K1UM1M0-32" style="edgeStyle=orthogonalEdgeStyle;rounded=0;orthogonalLoop=1;jettySize=auto;html=1;fontFamily=Helvetica;fontSize=18;fontColor=default;strokeWidth=2;strokeColor=#388ecc;align=center;verticalAlign=middle;labelBackgroundColor=default;endArrow=blockThin;endFill=1;" parent="1" source="kRHJZaTtdogB_K1UM1M0-18" edge="1">
          <mxGeometry relative="1" as="geometry">
            <mxPoint x="950" y="50" as="targetPoint" />
          </mxGeometry>
        </mxCell>
        <mxCell id="kRHJZaTtdogB_K1UM1M0-18" value="" style="verticalLabelPosition=bottom;outlineConnect=0;align=center;dashed=0;html=1;verticalAlign=middle;shape=mxgraph.pid2misc.column;columnType=fluid;pointerEvents=1;strokeColor=default;strokeWidth=2;fontFamily=Helvetica;fontSize=18;fontColor=default;fillColor=default;rounded=0;labelBackgroundColor=default;" parent="1" vertex="1">
          <mxGeometry x="935" y="70" width="30" height="100" as="geometry" />
        </mxCell>
        <mxCell id="kRHJZaTtdogB_K1UM1M0-19" style="edgeStyle=orthogonalEdgeStyle;rounded=0;orthogonalLoop=1;jettySize=auto;html=1;entryX=0.5;entryY=0;entryDx=0;entryDy=0;entryPerimeter=0;fontFamily=Helvetica;fontSize=18;fontColor=default;strokeWidth=2;strokeColor=#65489d;align=center;verticalAlign=middle;labelBackgroundColor=default;endArrow=blockThin;endFill=1;fillColor=#dae8fc;" parent="1" source="kRHJZaTtdogB_K1UM1M0-1" target="kRHJZaTtdogB_K1UM1M0-2" edge="1">
          <mxGeometry relative="1" as="geometry" />
        </mxCell>
        <mxCell id="kRHJZaTtdogB_K1UM1M0-20" style="edgeStyle=orthogonalEdgeStyle;rounded=0;orthogonalLoop=1;jettySize=auto;html=1;exitX=0.5;exitY=1;exitDx=0;exitDy=0;exitPerimeter=0;fontFamily=Helvetica;fontSize=18;fontColor=default;entryX=0.504;entryY=0.013;entryDx=0;entryDy=0;entryPerimeter=0;strokeWidth=2;strokeColor=#65489d;align=center;verticalAlign=middle;labelBackgroundColor=default;endArrow=blockThin;endFill=1;fillColor=#dae8fc;" parent="1" source="kRHJZaTtdogB_K1UM1M0-2" target="kRHJZaTtdogB_K1UM1M0-5" edge="1">
          <mxGeometry relative="1" as="geometry">
            <mxPoint x="480" y="230" as="targetPoint" />
          </mxGeometry>
        </mxCell>
        <mxCell id="kRHJZaTtdogB_K1UM1M0-21" style="edgeStyle=orthogonalEdgeStyle;rounded=0;orthogonalLoop=1;jettySize=auto;html=1;entryX=0.5;entryY=1;entryDx=0;entryDy=0;entryPerimeter=0;fontFamily=Helvetica;fontSize=18;fontColor=default;exitX=0.496;exitY=0.997;exitDx=0;exitDy=0;exitPerimeter=0;strokeWidth=2;strokeColor=#65489d;align=center;verticalAlign=middle;labelBackgroundColor=default;endArrow=blockThin;endFill=1;fillColor=#dae8fc;" parent="1" source="kRHJZaTtdogB_K1UM1M0-5" target="kRHJZaTtdogB_K1UM1M0-3" edge="1">
          <mxGeometry relative="1" as="geometry" />
        </mxCell>
        <mxCell id="kRHJZaTtdogB_K1UM1M0-22" style="edgeStyle=orthogonalEdgeStyle;rounded=0;orthogonalLoop=1;jettySize=auto;html=1;fontFamily=Helvetica;fontSize=18;fontColor=default;exitX=0.5;exitY=0;exitDx=0;exitDy=0;exitPerimeter=0;entryX=-0.057;entryY=0.281;entryDx=0;entryDy=0;entryPerimeter=0;strokeWidth=2;strokeColor=#65489d;align=center;verticalAlign=middle;labelBackgroundColor=default;endArrow=blockThin;endFill=1;fillColor=#dae8fc;" parent="1" source="kRHJZaTtdogB_K1UM1M0-3" target="kRHJZaTtdogB_K1UM1M0-40" edge="1">
          <mxGeometry relative="1" as="geometry">
            <mxPoint x="220" y="230" as="targetPoint" />
          </mxGeometry>
        </mxCell>
        <mxCell id="kRHJZaTtdogB_K1UM1M0-23" style="edgeStyle=orthogonalEdgeStyle;rounded=0;orthogonalLoop=1;jettySize=auto;html=1;entryX=-0.025;entryY=0.415;entryDx=0;entryDy=0;entryPerimeter=0;fontFamily=Helvetica;fontSize=18;fontColor=default;exitX=0.748;exitY=0.007;exitDx=0;exitDy=0;exitPerimeter=0;strokeWidth=2;strokeColor=#388ecc;align=center;verticalAlign=middle;labelBackgroundColor=default;endArrow=blockThin;endFill=1;" parent="1" source="kRHJZaTtdogB_K1UM1M0-10" target="kRHJZaTtdogB_K1UM1M0-2" edge="1">
          <mxGeometry relative="1" as="geometry" />
        </mxCell>
        <mxCell id="kRHJZaTtdogB_K1UM1M0-24" style="edgeStyle=orthogonalEdgeStyle;rounded=0;orthogonalLoop=1;jettySize=auto;html=1;entryX=0;entryY=0.5;entryDx=0;entryDy=0;entryPerimeter=0;fontFamily=Helvetica;fontSize=18;fontColor=default;strokeWidth=2;strokeColor=#388ecc;align=center;verticalAlign=middle;labelBackgroundColor=default;endArrow=blockThin;endFill=1;" parent="1" source="kRHJZaTtdogB_K1UM1M0-2" target="kRHJZaTtdogB_K1UM1M0-3" edge="1">
          <mxGeometry relative="1" as="geometry" />
        </mxCell>
        <mxCell id="kRHJZaTtdogB_K1UM1M0-25" style="edgeStyle=orthogonalEdgeStyle;rounded=0;orthogonalLoop=1;jettySize=auto;html=1;entryX=0.483;entryY=0.001;entryDx=0;entryDy=0;entryPerimeter=0;fontFamily=Helvetica;fontSize=18;fontColor=default;strokeWidth=2;strokeColor=#388ecc;align=center;verticalAlign=middle;labelBackgroundColor=default;endArrow=blockThin;endFill=1;" parent="1" source="kRHJZaTtdogB_K1UM1M0-3" target="kRHJZaTtdogB_K1UM1M0-15" edge="1">
          <mxGeometry relative="1" as="geometry" />
        </mxCell>
        <mxCell id="kRHJZaTtdogB_K1UM1M0-26" style="edgeStyle=orthogonalEdgeStyle;rounded=0;orthogonalLoop=1;jettySize=auto;html=1;entryX=0;entryY=0.5;entryDx=0;entryDy=0;entryPerimeter=0;fontFamily=Helvetica;fontSize=18;fontColor=default;exitX=0.501;exitY=1;exitDx=0;exitDy=0;exitPerimeter=0;strokeWidth=2;strokeColor=#388ecc;align=center;verticalAlign=middle;labelBackgroundColor=default;endArrow=blockThin;endFill=1;" parent="1" source="kRHJZaTtdogB_K1UM1M0-15" target="kRHJZaTtdogB_K1UM1M0-14" edge="1">
          <mxGeometry relative="1" as="geometry" />
        </mxCell>
        <mxCell id="kRHJZaTtdogB_K1UM1M0-27" style="edgeStyle=orthogonalEdgeStyle;rounded=0;orthogonalLoop=1;jettySize=auto;html=1;entryX=0.007;entryY=0.497;entryDx=0;entryDy=0;entryPerimeter=0;fontFamily=Helvetica;fontSize=18;fontColor=default;strokeWidth=2;strokeColor=#388ecc;align=center;verticalAlign=middle;labelBackgroundColor=default;endArrow=blockThin;endFill=1;" parent="1" source="kRHJZaTtdogB_K1UM1M0-14" target="kRHJZaTtdogB_K1UM1M0-13" edge="1">
          <mxGeometry relative="1" as="geometry" />
        </mxCell>
        <mxCell id="kRHJZaTtdogB_K1UM1M0-35" style="edgeStyle=orthogonalEdgeStyle;rounded=0;orthogonalLoop=1;jettySize=auto;html=1;fontFamily=Helvetica;fontSize=18;fontColor=default;strokeWidth=2;strokeColor=#388ecc;align=center;verticalAlign=middle;labelBackgroundColor=default;endArrow=blockThin;endFill=1;" parent="1" target="kRHJZaTtdogB_K1UM1M0-18" edge="1">
          <mxGeometry relative="1" as="geometry">
            <mxPoint x="880" y="200" as="sourcePoint" />
            <mxPoint x="890" y="180" as="targetPoint" />
            <Array as="points">
              <mxPoint x="880" y="200" />
              <mxPoint x="950" y="200" />
            </Array>
          </mxGeometry>
        </mxCell>
        <mxCell id="kRHJZaTtdogB_K1UM1M0-37" value="" style="edgeStyle=segmentEdgeStyle;endArrow=blockThin;html=1;curved=0;rounded=0;endSize=8;startSize=8;sourcePerimeterSpacing=0;targetPerimeterSpacing=0;fontFamily=Helvetica;fontSize=18;fontColor=default;strokeWidth=2;strokeColor=#388ecc;align=center;verticalAlign=middle;labelBackgroundColor=default;endFill=1;" parent="1" target="kRHJZaTtdogB_K1UM1M0-11" edge="1">
          <mxGeometry width="100" relative="1" as="geometry">
            <mxPoint x="880" y="200" as="sourcePoint" />
            <mxPoint x="850" y="230" as="targetPoint" />
            <Array as="points">
              <mxPoint x="810" y="200" />
            </Array>
          </mxGeometry>
        </mxCell>
        <mxCell id="kRHJZaTtdogB_K1UM1M0-38" style="edgeStyle=orthogonalEdgeStyle;rounded=0;orthogonalLoop=1;jettySize=auto;html=1;fontFamily=Helvetica;fontSize=18;fontColor=default;entryX=0.5;entryY=0;entryDx=0;entryDy=0;entryPerimeter=0;strokeWidth=2;strokeColor=#105e5d;align=center;verticalAlign=middle;labelBackgroundColor=default;endArrow=blockThin;endFill=1;" parent="1" target="kRHJZaTtdogB_K1UM1M0-16" edge="1">
          <mxGeometry relative="1" as="geometry">
            <mxPoint x="950" y="200" as="sourcePoint" />
            <mxPoint x="1010" y="270" as="targetPoint" />
            <Array as="points">
              <mxPoint x="1020" y="200" />
            </Array>
          </mxGeometry>
        </mxCell>
        <mxCell id="kRHJZaTtdogB_K1UM1M0-46" style="edgeStyle=orthogonalEdgeStyle;rounded=0;orthogonalLoop=1;jettySize=auto;html=1;fontFamily=Helvetica;fontSize=18;fontColor=default;strokeWidth=2;strokeColor=#105e5d;align=center;verticalAlign=middle;labelBackgroundColor=default;endArrow=blockThin;endFill=1;" parent="1" edge="1">
          <mxGeometry relative="1" as="geometry">
            <mxPoint x="160" y="329.73" as="targetPoint" />
            <mxPoint x="210" y="329.7466666666668" as="sourcePoint" />
          </mxGeometry>
        </mxCell>
        <mxCell id="kRHJZaTtdogB_K1UM1M0-45" style="edgeStyle=orthogonalEdgeStyle;rounded=0;orthogonalLoop=1;jettySize=auto;html=1;fontFamily=Helvetica;fontSize=18;fontColor=default;strokeWidth=2;strokeColor=#65489d;align=center;verticalAlign=middle;labelBackgroundColor=default;endArrow=blockThin;endFill=1;fillColor=#dae8fc;" parent="1" source="kRHJZaTtdogB_K1UM1M0-40" edge="1">
          <mxGeometry relative="1" as="geometry">
            <mxPoint x="271" y="230" as="targetPoint" />
            <Array as="points">
              <mxPoint x="242" y="210" />
              <mxPoint x="271" y="210" />
              <mxPoint x="271" y="230" />
            </Array>
          </mxGeometry>
        </mxCell>
        <mxCell id="kRHJZaTtdogB_K1UM1M0-40" value="" style="shape=mxgraph.pid.vessels.tank,_vessel;html=1;pointerEvents=1;align=center;verticalLabelPosition=bottom;verticalAlign=middle;dashed=0;strokeColor=default;strokeWidth=2;fontFamily=Helvetica;fontSize=18;fontColor=default;fillColor=none;rounded=0;labelBackgroundColor=default;" parent="1" vertex="1">
          <mxGeometry x="236.57" y="280" width="11.43" height="10" as="geometry" />
        </mxCell>
        <mxCell id="kRHJZaTtdogB_K1UM1M0-41" value="" style="shape=mxgraph.pid.vessels.tank,_vessel;html=1;pointerEvents=1;align=center;verticalLabelPosition=bottom;verticalAlign=middle;dashed=0;strokeColor=#9F1D54;strokeWidth=2;fontFamily=Helvetica;fontSize=18;fontColor=default;fillColor=none;rounded=0;labelBackgroundColor=default;" parent="1" vertex="1">
          <mxGeometry x="330" y="240" width="11.43" height="20" as="geometry" />
        </mxCell>
        <mxCell id="kRHJZaTtdogB_K1UM1M0-42" style="edgeStyle=orthogonalEdgeStyle;rounded=0;orthogonalLoop=1;jettySize=auto;html=1;fontFamily=Helvetica;fontSize=18;fontColor=default;entryX=1.067;entryY=0.96;entryDx=0;entryDy=0;entryPerimeter=0;strokeWidth=2;strokeColor=default;align=center;verticalAlign=middle;labelBackgroundColor=default;endArrow=blockThin;endFill=1;" parent="1" source="kRHJZaTtdogB_K1UM1M0-8" target="kRHJZaTtdogB_K1UM1M0-41" edge="1">
          <mxGeometry relative="1" as="geometry">
            <mxPoint x="340" y="280" as="targetPoint" />
            <Array as="points">
              <mxPoint x="370" y="450" />
              <mxPoint x="370" y="259" />
            </Array>
          </mxGeometry>
        </mxCell>
        <mxCell id="kRHJZaTtdogB_K1UM1M0-43" style="edgeStyle=orthogonalEdgeStyle;rounded=0;orthogonalLoop=1;jettySize=auto;html=1;entryX=1.025;entryY=0.472;entryDx=0;entryDy=0;entryPerimeter=0;fontFamily=Helvetica;fontSize=18;fontColor=default;strokeWidth=2;strokeColor=#105e5d;align=center;verticalAlign=middle;labelBackgroundColor=default;endArrow=blockThin;endFill=1;" parent="1" source="kRHJZaTtdogB_K1UM1M0-16" target="kRHJZaTtdogB_K1UM1M0-41" edge="1">
          <mxGeometry relative="1" as="geometry">
            <Array as="points">
              <mxPoint x="1020" y="420" />
              <mxPoint x="420" y="420" />
              <mxPoint x="420" y="250" />
              <mxPoint x="342" y="250" />
            </Array>
          </mxGeometry>
        </mxCell>
        <mxCell id="kRHJZaTtdogB_K1UM1M0-44" style="edgeStyle=orthogonalEdgeStyle;rounded=0;orthogonalLoop=1;jettySize=auto;html=1;entryX=0.164;entryY=0.978;entryDx=0;entryDy=0;entryPerimeter=0;fontFamily=Helvetica;fontSize=18;fontColor=default;strokeWidth=2;strokeColor=default;align=center;verticalAlign=middle;labelBackgroundColor=default;endArrow=blockThin;endFill=1;" parent="1" source="kRHJZaTtdogB_K1UM1M0-9" target="kRHJZaTtdogB_K1UM1M0-40" edge="1">
          <mxGeometry relative="1" as="geometry" />
        </mxCell>
        <mxCell id="kRHJZaTtdogB_K1UM1M0-49" value="&lt;font face=&quot;IBM Plex sans&quot; style=&quot;font-size: 18px;&quot;&gt;City gas&lt;/font&gt;&lt;div style=&quot;font-size: 18px;&quot;&gt;&lt;font face=&quot;IBM Plex sans&quot; style=&quot;font-size: 18px;&quot;&gt;Natural gas&lt;/font&gt;&lt;/div&gt;" style="text;html=1;align=left;verticalAlign=middle;resizable=0;points=[];autosize=1;strokeColor=none;fillColor=none;fontFamily=Helvetica;fontSize=18;fontColor=default;strokeWidth=2;" parent="1" vertex="1">
          <mxGeometry x="60" y="10" width="120" height="60" as="geometry" />
        </mxCell>
        <mxCell id="kRHJZaTtdogB_K1UM1M0-50" value="&lt;font face=&quot;IBM Plex sans&quot; style=&quot;font-size: 18px;&quot;&gt;Flue gas&lt;/font&gt;" style="text;html=1;align=left;verticalAlign=middle;resizable=0;points=[];autosize=1;strokeColor=none;fillColor=none;fontFamily=Helvetica;fontSize=18;fontColor=default;strokeWidth=2;" parent="1" vertex="1">
          <mxGeometry x="75" y="310" width="90" height="40" as="geometry" />
        </mxCell>
        <mxCell id="kRHJZaTtdogB_K1UM1M0-51" value="&lt;font style=&quot;font-size: 18px;&quot; face=&quot;IBM Plex sans&quot;&gt;Water&lt;/font&gt;" style="text;html=1;align=center;verticalAlign=middle;resizable=0;points=[];autosize=1;strokeColor=none;fillColor=none;fontFamily=Helvetica;fontSize=18;fontColor=default;strokeWidth=2;labelBackgroundColor=default;" parent="1" vertex="1">
          <mxGeometry x="235" y="466" width="70" height="40" as="geometry" />
        </mxCell>
        <mxCell id="kRHJZaTtdogB_K1UM1M0-52" value="&lt;font style=&quot;font-size: 18px;&quot; face=&quot;IBM Plex sans&quot;&gt;Air&lt;/font&gt;" style="text;html=1;align=center;verticalAlign=middle;resizable=0;points=[];autosize=1;strokeColor=none;fillColor=none;fontFamily=Helvetica;fontSize=18;fontColor=default;strokeWidth=2;labelBackgroundColor=default;" parent="1" vertex="1">
          <mxGeometry x="366.5" y="466" width="50" height="40" as="geometry" />
        </mxCell>
        <mxCell id="kRHJZaTtdogB_K1UM1M0-54" value="&lt;font style=&quot;font-size: 18px;&quot; face=&quot;IBM Plex sans&quot;&gt;Reformer&lt;/font&gt;" style="text;html=1;align=center;verticalAlign=middle;resizable=0;points=[];autosize=1;strokeColor=none;fillColor=none;fontFamily=Helvetica;fontSize=18;fontColor=default;strokeWidth=2;labelBackgroundColor=default;fontStyle=1" parent="1" vertex="1">
          <mxGeometry x="236.57" y="345" width="100" height="40" as="geometry" />
        </mxCell>
        <mxCell id="kRHJZaTtdogB_K1UM1M0-55" value="&lt;font style=&quot;font-size: 18px;&quot; face=&quot;IBM Plex sans&quot;&gt;Sulphur&lt;/font&gt;&lt;div style=&quot;font-size: 18px;&quot;&gt;&lt;font style=&quot;font-size: 18px;&quot; face=&quot;IBM Plex sans&quot;&gt;removal&lt;/font&gt;&lt;/div&gt;" style="text;html=1;align=center;verticalAlign=middle;resizable=0;points=[];autosize=1;strokeColor=none;fillColor=none;fontFamily=Helvetica;fontSize=18;fontColor=default;strokeWidth=2;labelBackgroundColor=default;" parent="1" vertex="1">
          <mxGeometry x="435" y="335" width="90" height="60" as="geometry" />
        </mxCell>
        <mxCell id="kRHJZaTtdogB_K1UM1M0-56" value="&lt;font style=&quot;font-size: 18px;&quot; face=&quot;IBM Plex sans&quot;&gt;CO&lt;/font&gt;&lt;div style=&quot;font-size: 18px;&quot;&gt;&lt;font style=&quot;font-size: 18px;&quot; face=&quot;IBM Plex sans&quot;&gt;Shift&lt;/font&gt;&lt;/div&gt;" style="text;html=1;align=center;verticalAlign=middle;resizable=0;points=[];autosize=1;strokeColor=none;fillColor=none;fontFamily=Helvetica;fontSize=18;fontColor=default;strokeWidth=2;labelBackgroundColor=default;" parent="1" vertex="1">
          <mxGeometry x="610" y="332.5" width="60" height="60" as="geometry" />
        </mxCell>
        <mxCell id="kRHJZaTtdogB_K1UM1M0-57" value="&lt;font style=&quot;font-size: 18px;&quot; face=&quot;IBM Plex sans&quot;&gt;Separator&lt;/font&gt;" style="text;html=1;align=center;verticalAlign=middle;resizable=0;points=[];autosize=1;strokeColor=none;fillColor=none;fontFamily=Helvetica;fontSize=18;fontColor=default;strokeWidth=2;labelBackgroundColor=default;" parent="1" vertex="1">
          <mxGeometry x="895" y="342.5" width="100" height="40" as="geometry" />
        </mxCell>
        <mxCell id="kRHJZaTtdogB_K1UM1M0-58" value="&lt;font style=&quot;font-size: 18px;&quot; face=&quot;IBM Plex sans&quot;&gt;PSA&lt;/font&gt;" style="text;html=1;align=center;verticalAlign=middle;resizable=0;points=[];autosize=1;strokeColor=none;fillColor=none;fontFamily=Helvetica;fontSize=18;fontColor=default;strokeWidth=2;labelBackgroundColor=default;" parent="1" vertex="1">
          <mxGeometry x="955" y="155" width="60" height="40" as="geometry" />
        </mxCell>
        <mxCell id="kRHJZaTtdogB_K1UM1M0-59" value="&lt;font face=&quot;IBM Plex sans&quot; style=&quot;font-size: 18px;&quot;&gt;Fuel gas&lt;/font&gt;" style="text;html=1;align=right;verticalAlign=middle;resizable=0;points=[];autosize=1;strokeColor=none;fillColor=none;fontFamily=Helvetica;fontSize=18;fontColor=default;strokeWidth=2;labelBackgroundColor=default;" parent="1" vertex="1">
          <mxGeometry x="931" y="430" width="90" height="40" as="geometry" />
        </mxCell>
        <mxCell id="kRHJZaTtdogB_K1UM1M0-60" value="&lt;font face=&quot;IBM Plex sans&quot; style=&quot;font-size: 18px;&quot;&gt;Hydrogen product&lt;/font&gt;" style="text;html=1;align=right;verticalAlign=middle;resizable=0;points=[];autosize=1;strokeColor=none;fillColor=none;fontFamily=Helvetica;fontSize=18;fontColor=default;strokeWidth=2;labelBackgroundColor=default;" parent="1" vertex="1">
          <mxGeometry x="885" y="10" width="170" height="40" as="geometry" />
        </mxCell>
      </root>
    </mxGraphModel>
  </diagram>
</mxfile>
